# xmcd
#
# Track frame offsets: 
#        150
#        25220
#        47055
#        61530
#        78297
#        96817
#        107752
#        127167
#        142470
#        163662
#        185382
#        202390
#        217047
#        237667
#
# Disc length: 3432 seconds
#
# Revision: 0
# Processed by: cddbd v1.5.2PL0 Copyright (c) Steve Scherf et al.
# Submitted via: ExactAudioCopyFreeDBPlugin 1.0
#
DISCID=d50d660e
DTITLE=พงษ์เทพ กระโดนชำนาญ - 2 ทศวรรษกวีศรีชาวไร่ (ทศวรรษที่ 2)
DYEAR=1900
DGENRE=
TTITLE0=โคราชา
TTITLE1=ห้วยแถลง
TTITLE2=กระโทกโชคชัย
TTITLE3=หม่อน
TTITLE4=ตายหยังเขียด
TTITLE5=คนชอบเมา (กรึ๊บ)
TTITLE6=ครูไม่ใหญ่
TTITLE7=คนกับหมา
TTITLE8=ต้นขับขี่
TTITLE9=แก้มตุ่ย
TTITLE10=ดอกแก้ว
TTITLE11=ดาวน์สาว
TTITLE12=คนจนรุ่นใหม่
TTITLE13=ตังเก
EXTD=
EXTT0=
EXTT1=
EXTT2=
EXTT3=
EXTT4=
EXTT5=
EXTT6=
EXTT7=
EXTT8=
EXTT9=
EXTT10=
EXTT11=
EXTT12=
EXTT13=
PLAYORDER=
